<svg width="249" height="32" viewBox="0 0 249 32" fill="none" xmlns="http://www.w3.org/2000/svg">
<path d="M12.183 16.2328C11.7554 12.1162 15.836 8.81515 21.2891 8.85983C26.7475 8.90452 31.5196 12.2782 31.9472 16.3892C32.3748 20.5113 28.2995 23.8068 22.8411 23.7621C17.3827 23.7174 12.6106 20.3493 12.183 16.2328ZM32.966 17.5119C32.4751 12.4067 26.9797 8.22866 20.6978 8.17281C14.4107 8.11695 9.71775 12.2112 10.214 17.3164C10.7102 22.4216 16.2002 26.6052 22.4821 26.661C28.764 26.7113 33.4622 22.6227 32.966 17.5119Z" fill="#F7BB82"/>
<path d="M23.4789 26.7557C20.3854 30.1797 15.418 30.4645 12.3826 27.3925C9.34727 24.3204 9.40006 19.0588 12.4988 15.6404C15.5922 12.2221 20.5649 11.9372 23.5897 15.0037C26.6198 18.0757 26.5723 23.3374 23.4736 26.7557M12.0184 15.5287C8.42346 19.5057 8.3654 25.6219 11.8864 29.191C15.4074 32.7602 21.1878 32.4307 24.7827 28.4537C28.383 24.4768 28.441 18.3606 24.9147 14.7914C21.3937 11.2223 15.6186 11.5518 12.0184 15.5287Z" fill="#F4A051"/>
<path d="M12.3466 2.7268C18.7816 0.174199 25.1479 2.75473 26.5626 8.49111C27.9774 14.2331 23.9074 20.9469 17.4724 23.4995C11.0374 26.0577 4.67108 23.4716 3.25633 17.7352C1.83631 11.9989 5.91162 5.27941 12.3466 2.7268ZM6.3656 4.91635C-0.306919 10.5131 -2.00672 18.6178 2.57008 23.0192C7.14688 27.4262 16.2741 26.4599 22.9519 20.8631C29.6297 15.272 31.3295 7.16733 26.7474 2.76032C22.1706 -1.64111 13.0434 -0.674808 6.3656 4.91635Z" fill="#ED7100"/>
<path d="M48.1338 9.53296V22.1675H46.2651V15.5039H39.1861V22.1675H37.3174V9.53296H39.1861V13.7724H46.2651V9.53296H48.1338Z" fill="black"/>
<path d="M52.6257 22.1677C51.7546 22.1677 51.0631 21.9107 50.551 21.3913C50.0337 20.8718 49.7698 20.2071 49.7698 19.3972V18.7214C49.7698 17.8947 50.0284 17.2245 50.551 16.7106C51.0578 16.1799 51.7494 15.9174 52.6257 15.9174H57.5034V15.8672C57.5034 14.8562 56.9807 14.3479 55.9302 14.3479H50.5035V12.6666H55.8986C57.023 12.6666 57.8782 12.9682 58.4694 13.5715C59.0712 14.1524 59.3721 15.0014 59.3721 16.1129V19.4587C59.3721 20.3189 59.0976 20.9947 58.5486 21.4862C58.0471 21.9387 57.3503 22.1621 56.4423 22.1621H52.6257V22.1677ZM56.0411 17.5987H53.0796C52.1242 17.5987 51.6438 18.0288 51.6438 18.8834V19.1962C51.6438 20.0452 52.1189 20.4641 53.0796 20.4641H56.0411C57.0177 20.4641 57.5086 20.0396 57.5086 19.1962V18.8834C57.5086 18.0232 57.0177 17.5987 56.0411 17.5987Z" fill="black"/>
<path d="M64.846 12.6666H66.6831C67.8444 12.6666 68.7629 13.0241 69.4281 13.7391C70.0932 14.454 70.4258 15.4482 70.4258 16.7217V22.1621H68.5571V16.8167C68.5571 16.0236 68.4093 15.4482 68.1189 15.0852C67.7547 14.6104 67.2321 14.3758 66.5458 14.3758H64.9569C64.2917 14.3758 63.7744 14.6104 63.3996 15.0852C63.1304 15.4482 62.9931 16.0236 62.9931 16.8167V22.1621H61.1244V16.7217C61.1244 15.4482 61.457 14.454 62.1221 13.7391C62.7872 13.0241 63.6952 12.6666 64.8513 12.6666H64.846Z" fill="black"/>
<path d="M79.0472 20.8998C78.3821 21.7488 77.5586 22.1677 76.5661 22.1677H75.4153C74.3754 22.1677 73.5519 21.8214 72.9343 21.1288C72.3536 20.4808 72.0632 19.5592 72.0632 18.3751V12.6666H73.9161V18.3918C73.9161 19.0844 74.0587 19.5927 74.3384 19.9111C74.6604 20.2742 75.0828 20.4529 75.6001 20.4529H76.413C76.9409 20.4529 77.3685 20.2742 77.6905 19.9111C77.9809 19.5927 78.1287 19.0844 78.1287 18.3918V12.6666H79.9657V18.3918C79.9657 19.0844 80.1083 19.5927 80.388 19.9111C80.7101 20.2742 81.1324 20.4529 81.6497 20.4529H82.4626C82.9905 20.4529 83.4181 20.2742 83.7401 19.9111C84.0305 19.5927 84.1783 19.0844 84.1783 18.3918V12.6666H86.0312V18.3751C86.0312 19.5648 85.7303 20.4808 85.1285 21.1288C84.5161 21.8214 83.6821 22.1677 82.6316 22.1677H81.4913C80.5253 22.1677 79.7071 21.7432 79.0419 20.8998H79.0472Z" fill="black"/>
<path d="M91.5158 14.3818C90.8507 14.3818 90.3334 14.6164 89.9586 15.0912C89.6893 15.4542 89.5521 16.0295 89.5521 16.8227V22.1681H87.6833V9.5H89.5521V13.2423C90.0905 12.8569 90.7134 12.667 91.405 12.667H93.242C94.4034 12.667 95.3219 13.0245 95.9871 13.7394C96.6522 14.4544 96.9848 15.4486 96.9848 16.7221V22.1625H95.116V16.8171C95.116 16.0239 94.9682 15.4486 94.6779 15.0856C94.3136 14.6108 93.791 14.3762 93.1048 14.3762H91.5158V14.3818Z" fill="black"/>
<path d="M101.382 22.1677C100.511 22.1677 99.8199 21.9107 99.3079 21.3913C98.7906 20.8718 98.5266 20.2071 98.5266 19.3972V18.7214C98.5266 17.8947 98.7853 17.2245 99.3079 16.7106C99.8147 16.1799 100.506 15.9174 101.382 15.9174H106.26V15.8672C106.26 14.8562 105.738 14.3479 104.687 14.3479H99.2604V12.6666H104.655C105.78 12.6666 106.635 12.9682 107.226 13.5715C107.828 14.1524 108.129 15.0014 108.129 16.1129V19.4587C108.129 20.3189 107.854 20.9947 107.305 21.4862C106.804 21.9387 106.107 22.1621 105.199 22.1621H101.382V22.1677ZM104.798 17.5987H101.836C100.881 17.5987 100.401 18.0288 100.401 18.8834V19.1962C100.401 20.0452 100.876 20.4641 101.836 20.4641H104.798C105.775 20.4641 106.265 20.0396 106.265 19.1962V18.8834C106.265 18.0232 105.775 17.5987 104.798 17.5987Z" fill="black"/>
<path d="M121.911 22.1675H118.12C116.927 22.1675 116.014 21.838 115.391 21.1789C114.779 20.5421 114.473 19.5591 114.473 18.2241V13.5043C114.473 12.1638 114.779 11.1695 115.391 10.5216C116.004 9.87368 116.922 9.53296 118.12 9.53296H121.911C123.104 9.53296 124.017 9.86251 124.64 10.5216C125.263 11.1695 125.574 12.1638 125.574 13.5043V18.2241C125.574 19.5535 125.263 20.5365 124.64 21.1789C124.006 21.8268 123.098 22.1563 121.911 22.1675ZM121.784 20.4527C122.491 20.4527 123.003 20.2405 123.325 19.8104C123.574 19.4473 123.7 18.8888 123.7 18.1292V13.6104C123.7 12.8396 123.574 12.2755 123.325 11.9124C123.003 11.4712 122.491 11.2533 121.784 11.2533H118.231C117.535 11.2533 117.028 11.4712 116.706 11.9124C116.468 12.2755 116.347 12.8396 116.347 13.6104V18.1292C116.347 18.8888 116.468 19.4473 116.706 19.8104C117.028 20.2405 117.54 20.4527 118.231 20.4527H121.784Z" fill="black"/>
<path d="M136.877 22.1677H130.906C129.793 22.1565 128.922 21.8158 128.288 21.1455C127.655 20.4864 127.338 19.5425 127.338 18.3081V16.5598C127.338 15.3198 127.655 14.3646 128.288 13.7055C128.922 13.0353 129.793 12.689 130.906 12.6666H136.877V14.3814H131.065C130.4 14.3814 129.903 14.5992 129.581 15.0405C129.344 15.4036 129.222 15.9398 129.222 16.6547V18.2075C129.222 18.9113 129.344 19.4419 129.581 19.805C129.903 20.2351 130.4 20.4473 131.065 20.4473H136.877V22.1621V22.1677Z" fill="black"/>
<path d="M148.158 15.4706V16.1297C148.158 16.9452 147.894 17.6099 147.361 18.1237C146.854 18.6432 146.163 18.9001 145.286 18.9001H140.425V18.9671C140.425 19.967 140.947 20.4697 141.998 20.4697H147.736V22.1677H142.014C140.9 22.1677 140.045 21.8716 139.443 21.2796C138.852 20.6987 138.556 19.8553 138.556 18.7549V15.4706C138.556 14.6439 138.815 13.9736 139.337 13.4598C139.844 12.9347 140.541 12.6666 141.428 12.6666H145.276C146.158 12.6666 146.854 12.9291 147.366 13.4598C147.894 13.9792 148.163 14.6495 148.163 15.4706H148.158ZM141.86 17.2189H144.838C145.804 17.2189 146.289 16.7944 146.289 15.9509V15.6381C146.289 14.778 145.804 14.3535 144.838 14.3535H141.86C140.905 14.3535 140.425 14.7836 140.425 15.6381V15.9509C140.425 16.7999 140.905 17.2189 141.86 17.2189Z" fill="black"/>
<path d="M152.507 22.1677C151.636 22.1677 150.945 21.9107 150.433 21.3913C149.916 20.8718 149.652 20.2071 149.652 19.3972V18.7214C149.652 17.8947 149.91 17.2245 150.433 16.7106C150.94 16.1799 151.631 15.9174 152.507 15.9174H157.385V15.8672C157.385 14.8562 156.863 14.3479 155.812 14.3479H150.385V12.6666H155.78C156.905 12.6666 157.76 12.9682 158.351 13.5715C158.953 14.1524 159.254 15.0014 159.254 16.1129V19.4587C159.254 20.3189 158.979 20.9947 158.43 21.4862C157.929 21.9387 157.232 22.1621 156.324 22.1621H152.507V22.1677ZM155.923 17.5987H152.961C152.006 17.5987 151.526 18.0288 151.526 18.8834V19.1962C151.526 20.0452 152.001 20.4641 152.961 20.4641H155.923C156.9 20.4641 157.39 20.0396 157.39 19.1962V18.8834C157.39 18.0232 156.9 17.5987 155.923 17.5987Z" fill="black"/>
<path d="M164.728 12.6666H166.565C167.726 12.6666 168.645 13.0241 169.31 13.7391C169.975 14.454 170.308 15.4482 170.308 16.7218V22.1621H168.439V16.8167C168.439 16.0236 168.291 15.4482 168.001 15.0852C167.637 14.6104 167.114 14.3758 166.428 14.3758H164.839C164.174 14.3758 163.656 14.6104 163.282 15.0852C163.012 15.4482 162.875 16.0236 162.875 16.8167V22.1621H161.006V16.7218C161.006 15.4482 161.339 14.454 162.004 13.7391C162.669 13.0241 163.577 12.6666 164.733 12.6666H164.728Z" fill="black"/>
<path d="M243.07 15.0871C242.48 15.0871 242.025 15.2771 241.705 15.6571C241.465 15.9671 241.345 16.4871 241.345 17.2171V22.1671H239.125V10.3471H241.345V13.6321C241.785 13.3621 242.295 13.2271 242.875 13.2271H244.72C245.89 13.2271 246.815 13.5671 247.495 14.2471C248.165 14.9371 248.5 15.8771 248.5 17.0671V22.1671H246.28V17.2171C246.28 16.4871 246.15 15.9671 245.89 15.6571C245.58 15.2771 245.115 15.0871 244.495 15.0871H243.07Z" fill="black"/>
<path d="M237.948 22.1679H231.993C230.853 22.1579 229.958 21.8279 229.308 21.1779C228.668 20.5479 228.348 19.6629 228.348 18.5229V16.9029C228.348 15.7529 228.668 14.8629 229.308 14.2329C229.958 13.5829 230.853 13.2479 231.993 13.2279H237.948V15.0879H232.278C231.628 15.0879 231.168 15.2629 230.898 15.6129C230.688 15.9129 230.583 16.3829 230.583 17.0229V18.4029C230.583 19.0329 230.688 19.4979 230.898 19.7979C231.168 20.1379 231.628 20.3079 232.278 20.3079H237.948V22.1679Z" fill="black"/>
<path d="M221.048 17.3679H223.703C224.563 17.3679 224.993 17.0379 224.993 16.3779V16.0629C224.993 15.3929 224.563 15.0579 223.703 15.0579H221.048C220.198 15.0579 219.773 15.3929 219.773 16.0629V16.3779C219.773 17.0379 220.198 17.3679 221.048 17.3679ZM227.213 15.9129V16.5429C227.213 17.2929 226.943 17.9229 226.403 18.4329C225.853 18.9429 225.173 19.1979 224.363 19.1979H219.773V19.2429C219.773 19.9629 220.278 20.3229 221.288 20.3229H226.808V22.1679H221.063C219.943 22.1679 219.073 21.8779 218.453 21.2979C217.853 20.7279 217.553 19.9429 217.553 18.9429V15.8979C217.553 15.1479 217.818 14.5179 218.348 14.0079C218.888 13.4879 219.593 13.2279 220.463 13.2279H224.288C225.158 13.2279 225.863 13.4879 226.403 14.0079C226.943 14.5279 227.213 15.1629 227.213 15.9129Z" fill="black"/>
<path d="M214.18 13.2267H216.82V15.0417H214.18V22.1667H211.945V15.0417H209.305V13.2267H211.945V11.2767H214.18V13.2267Z" fill="black"/>
<path d="M204.555 20.3079C205.165 20.3079 205.6 20.1379 205.86 19.7979C206.09 19.4879 206.205 19.0229 206.205 18.4029V17.0229C206.205 16.3929 206.09 15.9229 205.86 15.6129C205.6 15.2629 205.165 15.0879 204.555 15.0879H202.305C201.705 15.0879 201.275 15.2629 201.015 15.6129C200.795 15.9129 200.685 16.3829 200.685 17.0229V18.4029C200.685 19.0329 200.795 19.4979 201.015 19.7979C201.275 20.1379 201.705 20.3079 202.305 20.3079H204.555ZM204.765 22.1679H202.11C200.97 22.1579 200.075 21.8279 199.425 21.1779C198.785 20.5479 198.465 19.6629 198.465 18.5229V16.8879C198.465 15.7379 198.785 14.8479 199.425 14.2179C200.075 13.5679 200.97 13.2379 202.11 13.2279H204.765C205.915 13.2379 206.815 13.5679 207.465 14.2179C208.105 14.8479 208.425 15.7379 208.425 16.8879V18.5229C208.425 19.6629 208.105 20.5479 207.465 21.1779C206.815 21.8279 205.915 22.1579 204.765 22.1679Z" fill="black"/>
<path d="M197.299 22.1679H191.344C190.204 22.1579 189.309 21.8279 188.659 21.1779C188.019 20.5479 187.699 19.6629 187.699 18.5229V16.9029C187.699 15.7529 188.019 14.8629 188.659 14.2329C189.309 13.5829 190.204 13.2479 191.344 13.2279H197.299V15.0879H191.629C190.979 15.0879 190.519 15.2629 190.249 15.6129C190.039 15.9129 189.934 16.3829 189.934 17.0229V18.4029C189.934 19.0329 190.039 19.4979 190.249 19.7979C190.519 20.1379 190.979 20.3079 191.629 20.3079H197.299V22.1679Z" fill="black"/>
<path d="M175.91 14.1864C175.91 12.9064 176.22 11.9514 176.84 11.3214C177.48 10.6914 178.415 10.3764 179.645 10.3764H186.5V12.2364H179.975C179.235 12.2364 178.73 12.4114 178.46 12.7614C178.25 13.0614 178.145 13.5864 178.145 14.3364V15.3564H185.645V17.2014H178.145V18.2514C178.145 18.9814 178.25 19.4964 178.46 19.7964C178.73 20.1364 179.235 20.3064 179.975 20.3064H186.5V22.1664H179.645C178.415 22.1664 177.48 21.8464 176.84 21.2064C176.22 20.5964 175.91 19.6564 175.91 18.3864V14.1864Z" fill="black"/>
</svg>
