<svg width="198" height="33" viewBox="0 0 198 33" fill="none" xmlns="http://www.w3.org/2000/svg">
<path d="M182.507 12.8809C180.904 12.8809 179.667 13.3973 178.798 14.4299C178.146 15.2723 177.82 16.6854 177.82 18.6692V32.1208H171.787V1.81412e-05H177.82V8.92699C179.015 8.19327 180.401 7.82641 181.977 7.82641H186.991C190.171 7.82641 192.684 8.75035 194.532 10.5983C196.353 12.4733 197.263 15.0278 197.263 18.2616V32.1208H191.23V18.6692C191.23 16.6854 190.877 15.2723 190.171 14.4299C189.328 13.3973 188.065 12.8809 186.38 12.8809H182.507Z" fill="#EA7021"/>
<path d="M168.589 32.123H152.406C149.308 32.0959 146.876 31.1991 145.11 29.4327C143.37 27.7207 142.501 25.3157 142.501 22.2178V17.8154C142.501 14.6903 143.37 12.2717 145.11 10.5597C146.876 8.79333 149.308 7.88297 152.406 7.82862H168.589V12.8832H153.181C151.414 12.8832 150.164 13.3587 149.43 14.3098C148.86 15.1251 148.574 16.4023 148.574 18.1415V21.8917C148.574 23.6037 148.86 24.8673 149.43 25.6826C150.164 26.6065 151.414 27.0685 153.181 27.0685H168.589V32.123Z" fill="#EA7021"/>
<path d="M122.661 19.0791H129.876C132.213 19.0791 133.382 18.1823 133.382 16.3887V15.5327C133.382 13.712 132.213 12.8016 129.876 12.8016H122.661C120.351 12.8016 119.197 13.712 119.197 15.5327V16.3887C119.197 18.1823 120.351 19.0791 122.661 19.0791ZM139.415 15.1251V16.8371C139.415 18.8752 138.681 20.5873 137.214 21.9732C135.719 23.3591 133.871 24.0521 131.67 24.0521H119.197V24.1744C119.197 26.131 120.569 27.1092 123.314 27.1092H138.314V32.123H122.702C119.659 32.123 117.294 31.335 115.609 29.7588C113.979 28.2098 113.164 26.0766 113.164 23.3591V15.0843C113.164 13.0462 113.884 11.3342 115.324 9.94827C116.792 8.53517 118.707 7.82862 121.072 7.82862H131.466C133.83 7.82862 135.746 8.53517 137.214 9.94827C138.681 11.3614 139.415 13.087 139.415 15.1251Z" fill="#EA7021"/>
<path d="M103.998 7.82485H111.172V12.7571H103.998V32.1193H97.924V12.7571H90.7498V7.82485H97.924V2.52573H103.998V7.82485Z" fill="#EA7021"/>
<path d="M77.842 27.0685C79.4997 27.0685 80.6818 26.6065 81.3884 25.6826C82.0134 24.8401 82.3259 23.5765 82.3259 21.8917V18.1415C82.3259 16.4295 82.0134 15.1523 81.3884 14.3098C80.6818 13.3587 79.4997 12.8832 77.842 12.8832H71.7277C70.0972 12.8832 68.9286 13.3587 68.2221 14.3098C67.6242 15.1251 67.3253 16.4023 67.3253 18.1415V21.8917C67.3253 23.6037 67.6242 24.8673 68.2221 25.6826C68.9286 26.6065 70.0972 27.0685 71.7277 27.0685H77.842ZM78.4127 32.123H71.1977C68.0998 32.0959 65.6676 31.1991 63.9013 29.4327C62.1621 27.7207 61.2925 25.3157 61.2925 22.2178V17.7747C61.2925 14.6495 62.1621 12.231 63.9013 10.5189C65.6676 8.75257 68.0998 7.85579 71.1977 7.82862H78.4127C81.5378 7.85579 83.9836 8.75257 85.7499 10.5189C87.4891 12.231 88.3587 14.6495 88.3587 17.7747V22.2178C88.3587 25.3157 87.4891 27.7207 85.7499 29.4327C83.9836 31.1991 81.5378 32.0959 78.4127 32.123Z" fill="#EA7021"/>
<path d="M58.1249 32.123H41.9423C38.8443 32.0959 36.4121 31.1991 34.6458 29.4327C32.9066 27.7207 32.037 25.3157 32.037 22.2178V17.8154C32.037 14.6903 32.9066 12.2717 34.6458 10.5597C36.4121 8.79333 38.8443 7.88297 41.9423 7.82862H58.1249V12.8832H42.7167C40.9504 12.8832 39.7003 13.3587 38.9666 14.3098C38.3959 15.1251 38.1106 16.4023 38.1106 18.1415V21.8917C38.1106 23.6037 38.3959 24.8673 38.9666 25.6826C39.7003 26.6065 40.9504 27.0685 42.7167 27.0685H58.1249V32.123Z" fill="#EA7021"/>
<path d="M-0.000455541 10.4338C-0.000455541 6.95539 0.841968 4.36018 2.52682 2.64815C4.26601 0.936132 6.80687 0.0801208 10.1494 0.0801208H28.7778V5.13466H11.0462C9.03522 5.13466 7.66288 5.61022 6.92916 6.56135C6.35848 7.3766 6.07315 8.80328 6.07315 10.8414V13.6132H26.4544V18.627H6.07315V21.4804C6.07315 23.4642 6.35848 24.8637 6.92916 25.6789C7.66288 26.6029 9.03522 27.0648 11.0462 27.0648H28.7778V32.1194H10.1494C6.80687 32.1194 4.26601 31.2498 2.52682 29.5106C0.841968 27.8529 -0.000455541 25.2985 -0.000455541 21.8473V10.4338Z" fill="#EA7021"/>
</svg>
