<svg width="28" height="22" viewBox="0 0 28 22" fill="none" xmlns="http://www.w3.org/2000/svg">
<mask id="path-1-inside-1_343_12313" fill="white">
<path d="M28 11L12 0L12 8.25L0 0L0 22L12 13.75L12 22L28 11Z"/>
</mask>
<path d="M28 11L12 0L12 8.25L0 0L0 22L12 13.75L12 22L28 11Z" fill="white"/>
<path d="M28 11L28.5665 10.176L29.7651 11L28.5665 11.824L28 11ZM12 0H11V-1.90103L12.5665 -0.824041L12 0ZM12 8.25H13V10.151L11.4335 9.07404L12 8.25ZM0 0H-1L-1 -1.90103L0.566529 -0.824041L0 0ZM0 22L0.566529 22.824L-1 23.901L-1 22H0ZM12 13.75L11.4335 12.926L13 11.849V13.75H12ZM12 22L12.5665 22.824L11 23.901V22H12ZM28 11L27.4335 11.824L11.4335 0.824041L12 0L12.5665 -0.824041L28.5665 10.176L28 11ZM12 0H13L13 8.25H12H11L11 0H12ZM12 8.25L11.4335 9.07404L-0.566529 0.824041L0 0L0.566529 -0.824041L12.5665 7.42596L12 8.25ZM0 0H1L1 22H0H-1L-1 0H0ZM0 22L-0.566529 21.176L11.4335 12.926L12 13.75L12.5665 14.574L0.566529 22.824L0 22ZM12 13.75H13L13 22H12H11L11 13.75H12ZM12 22L11.4335 21.176L27.4335 10.176L28 11L28.5665 11.824L12.5665 22.824L12 22Z" fill="#EEEEEE" mask="url(#path-1-inside-1_343_12313)"/>
</svg>
