<svg width="28" height="22" viewBox="0 0 28 22" fill="none" xmlns="http://www.w3.org/2000/svg">
<mask id="path-1-inside-1_343_12307" fill="white">
<path d="M3.8147e-06 11L16 22V13.75L28 22V0L16 8.25V0L3.8147e-06 11Z"/>
</mask>
<path d="M3.8147e-06 11L16 22V13.75L28 22V0L16 8.25V0L3.8147e-06 11Z" fill="white"/>
<path d="M3.8147e-06 11L-0.566525 11.824L-1.76513 11L-0.566525 10.176L3.8147e-06 11ZM16 22H17V23.901L15.4335 22.824L16 22ZM16 13.75H15V11.849L16.5665 12.926L16 13.75ZM28 22H29V23.901L27.4335 22.824L28 22ZM28 0L27.4335 -0.824042L29 -1.90103V0H28ZM16 8.25L16.5665 9.07404L15 10.151V8.25H16ZM16 0L15.4335 -0.824042L17 -1.90103V0H16ZM3.8147e-06 11L0.566532 10.176L16.5665 21.176L16 22L15.4335 22.824L-0.566525 11.824L3.8147e-06 11ZM16 22H15V13.75H16H17V22H16ZM16 13.75L16.5665 12.926L28.5665 21.176L28 22L27.4335 22.824L15.4335 14.574L16 13.75ZM28 22H27V0H28H29V22H28ZM28 0L28.5665 0.824042L16.5665 9.07404L16 8.25L15.4335 7.42596L27.4335 -0.824042L28 0ZM16 8.25H15V0H16H17V8.25H16ZM16 0L16.5665 0.824042L0.566532 11.824L3.8147e-06 11L-0.566525 10.176L15.4335 -0.824042L16 0Z" fill="#EEEEEE" mask="url(#path-1-inside-1_343_12307)"/>
</svg>
