<svg width="176" height="115" viewBox="0 0 176 115" fill="none" xmlns="http://www.w3.org/2000/svg">
<g filter="url(#filter0_f_343_8835)">
<path d="M9.00014 43.9996C9.00014 41.9996 12.0001 31.4996 13.5001 26.4996C19.0001 26.9997 31.2 28.1 36 28.5C40.8 28.9 49 32.3333 52.5 34L51.5 39.5C51.8333 39.8333 52.5 40.8 52.5 42C52.5 43.2 54.5 45.1667 55.5 46L58.5 45.5L64 42L66.5 51.5H69.5L68 56L68.5 59.5H71.5C72.7 59.5 74 57.8333 74.5 57H75.5L90 37.5L99.5 16L102.5 5.5L102 0.999883L113 0L107.5 20C111.833 20.3333 120.6 21 121 21C121.5 21 123 13 124.5 11.5C125.7 10.3 125.667 3.99992 125.5 0.999883C125.5 0.666549 125.8 0.0998825 127 0.499883C128.5 0.999883 130.5 3.99988 133 4.99988C135.5 5.99988 153 6.49988 154 6.49988C154.8 6.49988 155.333 3.83322 155.5 2.49988L156.5 1.49962C156.5 0.832957 158.5 2.79962 166.5 15.9996C176.5 32.4996 176 35.4996 175 38.4996C174 41.4996 174.5 42.9996 174.5 44.4996C174.5 45.9996 168 73.4996 165 81.9996C162 90.4996 156.5 100.5 156 103.5C155.6 105.9 150.5 111.833 148 114.5L141 113L135 110L93.5 99.9996L90.5 103.5C88.1667 102.833 83.5 101.4 83.5 101C83.5 100.6 82.8333 97.833 82.5 96.4996C76.3333 95.333 63.4 92.6996 61 91.4996C58 89.9996 54.5 90.9996 52 93.9996C50 96.3996 46.1667 95.9996 44.5 95.4996L42 87.4996C32.6667 85.1663 12.8 80.2996 8 79.4996C2 78.4996 4 75.9996 2.5 75.9996C1.3 75.9996 0.333333 74.6663 0 73.9996L1 72.4996V70.4996L2.00014 69.9996C1.33348 69.1663 0.400142 67.2996 2.00014 66.4996C4.00014 65.4996 2.50014 63.9996 5.00014 61.4996C7.50014 58.9996 9.00014 46.4996 9.00014 43.9996Z" stroke="#ED7100" stroke-width="2"/>
</g>
<path d="M9.00014 43.9996C9.00014 41.9996 12.0001 31.4996 13.5001 26.4996C19.0001 26.9997 31.2 28.1 36 28.5C40.8 28.9 49 32.3333 52.5 34L51.5 39.5C51.8333 39.8333 52.5 40.8 52.5 42C52.5 43.2 54.5 45.1667 55.5 46L58.5 45.5L64 42L66.5 51.5H69.5L68 56L68.5 59.5H71.5C72.7 59.5 74 57.8333 74.5 57H75.5L90 37.5L99.5 16L102.5 5.5L102 0.999883L113 0L107.5 20C111.833 20.3333 120.6 21 121 21C121.5 21 123 13 124.5 11.5C125.7 10.3 125.667 3.99992 125.5 0.999883C125.5 0.666549 125.8 0.0998825 127 0.499883C128.5 0.999883 130.5 3.99988 133 4.99988C135.5 5.99988 153 6.49988 154 6.49988C154.8 6.49988 155.333 3.83322 155.5 2.49988L156.5 1.49962C156.5 0.832957 158.5 2.79962 166.5 15.9996C176.5 32.4996 176 35.4996 175 38.4996C174 41.4996 174.5 42.9996 174.5 44.4996C174.5 45.9996 168 73.4996 165 81.9996C162 90.4996 156.5 100.5 156 103.5C155.6 105.9 150.5 111.833 148 114.5L141 113L135 110L93.5 99.9996L90.5 103.5C88.1667 102.833 83.5 101.4 83.5 101C83.5 100.6 82.8333 97.833 82.5 96.4996C76.3333 95.333 63.4 92.6996 61 91.4996C58 89.9996 54.5 90.9996 52 93.9996C50 96.3996 46.1667 95.9996 44.5 95.4996L42 87.4996C32.6667 85.1663 12.8 80.2996 8 79.4996C2 78.4996 4 75.9996 2.5 75.9996C1.3 75.9996 0.333333 74.6663 0 73.9996L1 72.4996V70.4996L2.00014 69.9996C1.33348 69.1663 0.400142 67.2996 2.00014 66.4996C4.00014 65.4996 2.50014 63.9996 5.00014 61.4996C7.50014 58.9996 9.00014 46.4996 9.00014 43.9996Z" stroke="#ED7100" stroke-width="2"/>
<g filter="url(#filter1_f_343_8835)">
<path d="M9.00014 43.9996C9.00014 41.9996 12.0001 31.4996 13.5001 26.4996C19.0001 26.9997 31.2 28.1 36 28.5C40.8 28.9 49 32.3333 52.5 34L51.5 39.5C51.8333 39.8333 52.5 40.8 52.5 42C52.5 43.2 54.5 45.1667 55.5 46L58.5 45.5L64 42L66.5 51.5H69.5L68 56L68.5 59.5H71.5C72.7 59.5 74 57.8333 74.5 57H75.5L90 37.5L99.5 16L102.5 5.5L102 0.999883L113 0L107.5 20C111.833 20.3333 120.6 21 121 21C121.5 21 123 13 124.5 11.5C125.7 10.3 125.667 3.99992 125.5 0.999883C125.5 0.666549 125.8 0.0998825 127 0.499883C128.5 0.999883 130.5 3.99988 133 4.99988C135.5 5.99988 153 6.49988 154 6.49988C154.8 6.49988 155.333 3.83322 155.5 2.49988L156.5 1.49962C156.5 0.832957 158.5 2.79962 166.5 15.9996C176.5 32.4996 176 35.4996 175 38.4996C174 41.4996 174.5 42.9996 174.5 44.4996C174.5 45.9996 168 73.4996 165 81.9996C162 90.4996 156.5 100.5 156 103.5C155.6 105.9 150.5 111.833 148 114.5L141 113L135 110L93.5 99.9996L90.5 103.5C88.1667 102.833 83.5 101.4 83.5 101C83.5 100.6 82.8333 97.833 82.5 96.4996C76.3333 95.333 63.4 92.6996 61 91.4996C58 89.9996 54.5 90.9996 52 93.9996C50 96.3996 46.1667 95.9996 44.5 95.4996L42 87.4996C32.6667 85.1663 12.8 80.2996 8 79.4996C2 78.4996 4 75.9996 2.5 75.9996C1.3 75.9996 0.333333 74.6663 0 73.9996L1 72.4996V70.4996L2.00014 69.9996C1.33348 69.1663 0.400142 67.2996 2.00014 66.4996C4.00014 65.4996 2.50014 63.9996 5.00014 61.4996C7.50014 58.9996 9.00014 46.4996 9.00014 43.9996Z" stroke="white" stroke-width="0.5"/>
</g>
<defs>
<filter id="filter0_f_343_8835" x="-5.15381" y="-5.12659" width="185.658" height="124.722" filterUnits="userSpaceOnUse" color-interpolation-filters="sRGB">
<feFlood flood-opacity="0" result="BackgroundImageFix"/>
<feBlend mode="normal" in="SourceGraphic" in2="BackgroundImageFix" result="shape"/>
<feGaussianBlur stdDeviation="2" result="effect1_foregroundBlur_343_8835"/>
</filter>
<filter id="filter1_f_343_8835" x="-1.28857" y="-1.28162" width="178.042" height="117.055" filterUnits="userSpaceOnUse" color-interpolation-filters="sRGB">
<feFlood flood-opacity="0" result="BackgroundImageFix"/>
<feBlend mode="normal" in="SourceGraphic" in2="BackgroundImageFix" result="shape"/>
<feGaussianBlur stdDeviation="0.5" result="effect1_foregroundBlur_343_8835"/>
</filter>
</defs>
</svg>
