<svg width="234" height="74" viewBox="0 0 234 74" fill="none" xmlns="http://www.w3.org/2000/svg">
<path d="M2 2.50678C2 1.84194 2.28446 1.20433 2.79081 0.734217C3.29716 0.264106 3.98392 0 4.7 0H8.3C9.01608 0 9.70284 0.264106 10.2092 0.734217C10.7155 1.20433 11 1.84194 11 2.50678V74H2V2.50678Z" fill="black"/>
<path d="M26.4443 2.44709C26.4443 1.79808 26.7288 1.17565 27.2351 0.716736C27.7415 0.257817 28.4283 0 29.1443 0H32.7443C33.4604 0 34.1472 0.257817 34.6535 0.716736C35.1599 1.17565 35.4443 1.79808 35.4443 2.44709V74H26.4443V2.44709Z" fill="black"/>
<path d="M50.8889 2.39018C50.8889 1.75627 51.1734 1.14831 51.6797 0.700068C52.1861 0.251822 52.8728 0 53.5889 0H57.1889C57.905 0 58.5918 0.251822 59.0981 0.700068C59.6045 1.14831 59.8889 1.75627 59.8889 2.39018V74H50.8889V2.39018Z" fill="black"/>
<path d="M75.3333 2.28395C75.3333 1.67821 75.6493 1.09728 76.2119 0.668953C76.7745 0.24063 77.5376 0 78.3333 0H82.3333C83.1289 0 83.892 0.24063 84.4546 0.668953C85.0172 1.09728 85.3333 1.67821 85.3333 2.28395V74H75.3333V2.28395Z" fill="black"/>
<path d="M100.778 2.2343C100.778 1.64173 101.062 1.07342 101.569 0.654411C102.075 0.235398 102.762 0 103.478 0H107.078C107.794 0 108.481 0.235398 108.987 0.654411C109.493 1.07342 109.778 1.64173 109.778 2.2343V74H100.778V2.2343Z" fill="black"/>
<path d="M125.222 2.18676C125.222 1.6068 125.507 1.05059 126.013 0.640488C126.519 0.230391 127.206 0 127.922 0H131.522C132.238 0 132.925 0.230391 133.431 0.640488C133.938 1.05059 134.222 1.6068 134.222 2.18676V74H125.222V2.18676Z" fill="black"/>
<path d="M149.667 2.1412C149.667 1.57332 149.951 1.0287 150.458 0.627144C150.964 0.22559 151.651 0 152.367 0H155.967C156.683 0 157.37 0.22559 157.876 0.627144C158.382 1.0287 158.667 1.57332 158.667 2.1412V74H149.667V2.1412Z" fill="black"/>
<path d="M174.111 2.09751C174.111 1.54121 174.396 1.0077 174.902 0.614345C175.408 0.220987 176.095 0 176.811 0H180.411C181.127 0 181.814 0.220987 182.32 0.614345C182.827 1.0077 183.111 1.54121 183.111 2.09751V74H174.111V2.09751Z" fill="black"/>
<path d="M198.556 2.16374C198.556 1.58988 198.84 1.03953 199.346 0.633746C199.853 0.227965 200.54 0 201.256 0H204.856C205.572 0 206.259 0.227965 206.765 0.633746C207.271 1.03953 207.556 1.58988 207.556 2.16374V74H198.556V2.16374Z" fill="black"/>
<path d="M223 2.21027C223 1.62407 223.284 1.06188 223.791 0.647374C224.297 0.232867 224.984 0 225.7 0H229.3C230.016 0 230.703 0.232867 231.209 0.647374C231.716 1.06188 232 1.62407 232 2.21027V74H223V2.21027Z" fill="black"/>
</svg>
