<svg width="327" height="20" viewBox="0 0 327 20" fill="none" xmlns="http://www.w3.org/2000/svg">
<path d="M3 16.0282C24.389 13.5852 45.778 11.1422 67.167 9.51421C88.556 7.88521 109.944 6.25721 131.333 6.25721C152.722 6.25721 174.111 8.42822 195.5 8.42822C216.889 8.42822 238.278 3.00021 259.667 3.00021C281.056 3.00021 302.444 5.17122 323.833 5.17122" stroke="#60A5FA" stroke-width="2"/>
<path d="M3 19.0284C4.65685 19.0284 6 17.6852 6 16.0284C6 14.3715 4.65685 13.0284 3 13.0284C1.34315 13.0284 0 14.3715 0 16.0284C0 17.6852 1.34315 19.0284 3 19.0284Z" fill="#60A5FA"/>
<path d="M67.1667 12.5141C68.8236 12.5141 70.1667 11.1709 70.1667 9.51407C70.1667 7.85721 68.8236 6.51407 67.1667 6.51407C65.5099 6.51407 64.1667 7.85721 64.1667 9.51407C64.1667 11.1709 65.5099 12.5141 67.1667 12.5141Z" fill="#60A5FA"/>
<path d="M131.333 9.25693C132.99 9.25693 134.333 7.91378 134.333 6.25693C134.333 4.60007 132.99 3.25693 131.333 3.25693C129.676 3.25693 128.333 4.60007 128.333 6.25693C128.333 7.91378 129.676 9.25693 131.333 9.25693Z" fill="#60A5FA"/>
<path d="M195.5 11.4283C197.157 11.4283 198.5 10.0852 198.5 8.42834C198.5 6.77149 197.157 5.42834 195.5 5.42834C193.843 5.42834 192.5 6.77149 192.5 8.42834C192.5 10.0852 193.843 11.4283 195.5 11.4283Z" fill="#60A5FA"/>
<path d="M259.667 5.99977C261.324 5.99977 262.667 4.65663 262.667 2.99977C262.667 1.34292 261.324 -0.000228882 259.667 -0.000228882C258.01 -0.000228882 256.667 1.34292 256.667 2.99977C256.667 4.65663 258.01 5.99977 259.667 5.99977Z" fill="#60A5FA"/>
<path d="M323.833 8.17121C325.49 8.17121 326.833 6.82806 326.833 5.17121C326.833 3.51435 325.49 2.1712 323.833 2.1712C322.176 2.1712 320.833 3.51435 320.833 5.17121C320.833 6.82806 322.176 8.17121 323.833 8.17121Z" fill="#60A5FA"/>
</svg>
