<svg width="16" height="16" viewBox="0 0 16 16" fill="none" xmlns="http://www.w3.org/2000/svg">
<path d="M2 6.32225C2 6.17541 2.06455 6.03599 2.17652 5.94099L7.67652 1.27446C7.86311 1.11614 8.13688 1.11614 8.32348 1.27446L13.8235 5.94099C13.9355 6.03599 14 6.17541 14 6.32225V14.4996C14 14.7757 13.7762 14.9996 13.5001 14.9996L10.6429 14.9999C10.3667 15 10.1429 14.7761 10.1429 14.4999V10.2499C10.1429 9.9738 9.919 9.74995 9.64286 9.74995H6.35714C6.081 9.74995 5.85714 9.9738 5.85714 10.2499V14.4998C5.85714 14.7759 5.63327 14.9998 5.35712 14.9998L2.49997 14.9996C2.22384 14.9996 2 14.7757 2 14.4996V6.32225Z" stroke="white" stroke-linecap="round"/>
</svg>
