<svg width="249" height="30" viewBox="0 0 249 30" fill="none" xmlns="http://www.w3.org/2000/svg">
<path d="M12.1828 15.3785C11.7552 11.4786 15.8357 8.35126 21.2888 8.39359C26.7472 8.43592 31.5193 11.632 31.9469 15.5267C32.3745 19.4318 28.2992 22.5539 22.8408 22.5116C17.3825 22.4692 12.6103 19.2784 12.1828 15.3785ZM32.9657 16.5903C32.4748 11.7537 26.9795 7.79564 20.6976 7.74272C14.4104 7.68981 9.71751 11.5685 10.2137 16.4051C10.7099 21.2416 16.2 25.205 22.4819 25.2579C28.7637 25.3055 33.462 21.4321 32.9657 16.5903Z" fill="#F7BB82"/>
<path d="M23.4791 25.3478C20.3857 28.5915 15.4182 28.8614 12.3829 25.951C9.34751 23.0407 9.4003 18.056 12.499 14.8175C15.5924 11.5791 20.5652 11.3092 23.59 14.2143C26.62 17.1247 26.5725 22.1093 23.4738 25.3478M12.0186 14.7117C8.42371 18.4793 8.36564 24.2736 11.8867 27.6549C15.4077 31.0363 21.1881 30.7241 24.783 26.9564C28.3832 23.1888 28.4413 17.3945 24.915 14.0132C21.3939 10.6319 15.6188 10.9441 12.0186 14.7117Z" fill="#F4A051"/>
<path d="M12.3466 2.58329C18.7816 0.16503 25.1479 2.60975 26.5626 8.04421C27.9774 13.484 23.9074 19.8445 17.4724 22.2627C11.0374 24.6863 4.67108 22.2363 3.25633 16.8018C1.83631 11.3673 5.91162 5.00155 12.3466 2.58329ZM6.3656 4.65759C-0.306919 9.95977 -2.00672 17.6379 2.57008 21.8076C7.14688 25.9827 16.2741 25.0673 22.9519 19.7651C29.6297 14.4682 31.3295 6.7901 26.7474 2.61504C22.1706 -1.55474 13.0434 -0.639292 6.3656 4.65759Z" fill="#ED7100"/>
<path d="M48.1338 9.03174V21.0013H46.2651V14.6885H39.1861V21.0013H37.3174V9.03174H39.1861V13.0481H46.2651V9.03174H48.1338Z" fill="white"/>
<path d="M52.6254 21.0012C51.7544 21.0012 51.0629 20.7578 50.5508 20.2657C50.0335 19.7736 49.7695 19.1439 49.7695 18.3766V17.7363C49.7695 16.9532 50.0282 16.3182 50.5508 15.8314C51.0576 15.3287 51.7491 15.08 52.6254 15.08H57.5031V15.0323C57.5031 14.0745 56.9805 13.593 55.93 13.593H50.5033V12.0002H55.8983C57.0227 12.0002 57.8779 12.286 58.4691 12.8575C59.0709 13.4078 59.3718 14.2121 59.3718 15.2652V18.4348C59.3718 19.2497 59.0973 19.89 58.5483 20.3557C58.0468 20.7843 57.35 20.996 56.4421 20.996H52.6254V21.0012ZM56.0409 16.6727H53.0794C52.1239 16.6727 51.6435 17.0802 51.6435 17.8898V18.1861C51.6435 18.9904 52.1186 19.3873 53.0794 19.3873H56.0409C57.0174 19.3873 57.5084 18.9851 57.5084 18.1861V17.8898C57.5084 17.0749 57.0174 16.6727 56.0409 16.6727Z" fill="white"/>
<path d="M64.8461 12.0002H66.6832C67.8445 12.0002 68.7631 12.3389 69.4282 13.0162C70.0934 13.6936 70.4259 14.6355 70.4259 15.8419V20.996H68.5572V15.9319C68.5572 15.1805 68.4094 14.6355 68.119 14.2915C67.7548 13.8417 67.2322 13.6195 66.5459 13.6195H64.957C64.2918 13.6195 63.7745 13.8417 63.3997 14.2915C63.1305 14.6355 62.9932 15.1805 62.9932 15.9319V20.996H61.1245V15.8419C61.1245 14.6355 61.4571 13.6936 62.1222 13.0162C62.7874 12.3389 63.6953 12.0002 64.8514 12.0002H64.8461Z" fill="white"/>
<path d="M79.0475 19.8001C78.3823 20.6044 77.5588 21.0012 76.5664 21.0012H75.4156C74.3756 21.0012 73.5521 20.6732 72.9345 20.017C72.3538 19.4032 72.0635 18.5301 72.0635 17.4083V12.0002H73.9164V17.4241C73.9164 18.0803 74.0589 18.5618 74.3387 18.8634C74.6607 19.2074 75.083 19.3767 75.6003 19.3767H76.4133C76.9412 19.3767 77.3688 19.2074 77.6908 18.8634C77.9811 18.5618 78.1289 18.0803 78.1289 17.4241V12.0002H79.966V17.4241C79.966 18.0803 80.1085 18.5618 80.3883 18.8634C80.7103 19.2074 81.1326 19.3767 81.6499 19.3767H82.4629C82.9908 19.3767 83.4184 19.2074 83.7404 18.8634C84.0307 18.5618 84.1785 18.0803 84.1785 17.4241V12.0002H86.0314V17.4083C86.0314 18.5354 85.7305 19.4032 85.1287 20.017C84.5164 20.6732 83.6823 21.0012 82.6318 21.0012H81.4916C80.5255 21.0012 79.7073 20.5991 79.0422 19.8001H79.0475Z" fill="white"/>
<path d="M91.5161 13.6249C90.8509 13.6249 90.3336 13.8471 89.9588 14.2969C89.6896 14.6408 89.5523 15.1859 89.5523 15.9373V21.0013H87.6836V9H89.5523V12.5454C90.0908 12.1802 90.7137 12.0003 91.4052 12.0003H93.2423C94.4036 12.0003 95.3222 12.339 95.9873 13.0163C96.6524 13.6936 96.985 14.6355 96.985 15.842V20.996H95.1163V15.932C95.1163 15.1806 94.9685 14.6355 94.6781 14.2916C94.3139 13.8418 93.7913 13.6196 93.105 13.6196H91.5161V13.6249Z" fill="white"/>
<path d="M101.382 21.0012C100.511 21.0012 99.8197 20.7578 99.3076 20.2657C98.7903 19.7736 98.5264 19.1439 98.5264 18.3766V17.7363C98.5264 16.9532 98.785 16.3182 99.3076 15.8314C99.8144 15.3287 100.506 15.08 101.382 15.08H106.26V15.0323C106.26 14.0745 105.737 13.593 104.687 13.593H99.2601V12.0002H104.655C105.78 12.0002 106.635 12.286 107.226 12.8575C107.828 13.4078 108.129 14.2121 108.129 15.2652V18.4348C108.129 19.2497 107.854 19.89 107.305 20.3557C106.804 20.7843 106.107 20.996 105.199 20.996H101.382V21.0012ZM104.798 16.6727H101.836C100.881 16.6727 100.4 17.0802 100.4 17.8898V18.1861C100.4 18.9904 100.875 19.3873 101.836 19.3873H104.798C105.774 19.3873 106.265 18.9851 106.265 18.1861V17.8898C106.265 17.0749 105.774 16.6727 104.798 16.6727Z" fill="white"/>
<path d="M121.911 21.0013H118.12C116.927 21.0013 116.014 20.6891 115.391 20.0647C114.779 19.4615 114.473 18.5301 114.473 17.2655V12.7941C114.473 11.5241 114.779 10.5822 115.391 9.96835C116.004 9.35453 116.922 9.03174 118.12 9.03174H121.911C123.104 9.03174 124.017 9.34394 124.64 9.96835C125.263 10.5822 125.574 11.5241 125.574 12.7941V17.2655C125.574 18.5249 125.263 19.4562 124.64 20.0647C124.006 20.6785 123.098 20.9907 121.911 21.0013ZM121.784 19.3768C122.491 19.3768 123.003 19.1757 123.325 18.7683C123.573 18.4243 123.7 17.8952 123.7 17.1755V12.8946C123.7 12.1644 123.573 11.6299 123.325 11.286C123.003 10.8679 122.491 10.6615 121.784 10.6615H118.231C117.534 10.6615 117.028 10.8679 116.706 11.286C116.468 11.6299 116.347 12.1644 116.347 12.8946V17.1755C116.347 17.8952 116.468 18.4243 116.706 18.7683C117.028 19.1757 117.54 19.3768 118.231 19.3768H121.784Z" fill="white"/>
<path d="M136.877 21.0012H130.906C129.793 20.9907 128.922 20.6679 128.288 20.0329C127.655 19.4085 127.338 18.5142 127.338 17.3448V15.6885C127.338 14.5138 127.655 13.6089 128.288 12.9845C128.922 12.3495 129.793 12.0214 130.906 12.0002H136.877V13.6248H131.065C130.4 13.6248 129.903 13.8311 129.581 14.2492C129.344 14.5931 129.222 15.1011 129.222 15.7784V17.2495C129.222 17.9162 129.344 18.4189 129.581 18.7629C129.903 19.1704 130.4 19.3714 131.065 19.3714H136.877V20.996V21.0012Z" fill="white"/>
<path d="M148.158 14.6566V15.281C148.158 16.0536 147.894 16.6833 147.361 17.1701C146.854 17.6622 146.163 17.9057 145.286 17.9057H140.424V17.9692C140.424 18.9164 140.947 19.3926 141.998 19.3926H147.736V21.0012H142.013C140.9 21.0012 140.044 20.7208 139.443 20.1599C138.851 19.6096 138.556 18.8105 138.556 17.7681V14.6566C138.556 13.8735 138.814 13.2385 139.337 12.7517C139.844 12.2542 140.541 12.0002 141.427 12.0002H145.276C146.157 12.0002 146.854 12.2489 147.366 12.7517C147.894 13.2438 148.163 13.8788 148.163 14.6566H148.158ZM141.86 16.3129H144.838C145.804 16.3129 146.289 15.9107 146.289 15.1117V14.8154C146.289 14.0005 145.804 13.5983 144.838 13.5983H141.86C140.905 13.5983 140.424 14.0058 140.424 14.8154V15.1117C140.424 15.916 140.905 16.3129 141.86 16.3129Z" fill="white"/>
<path d="M152.508 21.0012C151.637 21.0012 150.945 20.7578 150.433 20.2657C149.916 19.7736 149.652 19.1439 149.652 18.3766V17.7363C149.652 16.9532 149.911 16.3182 150.433 15.8314C150.94 15.3287 151.631 15.08 152.508 15.08H157.385V15.0323C157.385 14.0745 156.863 13.593 155.812 13.593H150.386V12.0002H155.781C156.905 12.0002 157.76 12.286 158.351 12.8575C158.953 13.4078 159.254 14.2121 159.254 15.2652V18.4348C159.254 19.2497 158.98 19.89 158.431 20.3557C157.929 20.7843 157.232 20.996 156.324 20.996H152.508V21.0012ZM155.923 16.6727H152.962C152.006 16.6727 151.526 17.0802 151.526 17.8898V18.1861C151.526 18.9904 152.001 19.3873 152.962 19.3873H155.923C156.9 19.3873 157.391 18.9851 157.391 18.1861V17.8898C157.391 17.0749 156.9 16.6727 155.923 16.6727Z" fill="white"/>
<path d="M164.728 12.0002H166.565C167.726 12.0002 168.645 12.3389 169.31 13.0162C169.975 13.6936 170.308 14.6355 170.308 15.8419V20.996H168.439V15.9319C168.439 15.1805 168.291 14.6355 168.001 14.2915C167.637 13.8417 167.114 13.6195 166.428 13.6195H164.839C164.174 13.6195 163.656 13.8417 163.282 14.2915C163.012 14.6355 162.875 15.1805 162.875 15.9319V20.996H161.006V15.8419C161.006 14.6355 161.339 13.6936 162.004 13.0162C162.669 12.3389 163.577 12.0002 164.733 12.0002H164.728Z" fill="white"/>
<path d="M243.07 13.9199C242.48 13.9199 242.025 14.1099 241.705 14.4899C241.465 14.7999 241.345 15.3199 241.345 16.0499V20.9999H239.125V9.17994H241.345V12.4649C241.785 12.1949 242.295 12.0599 242.875 12.0599H244.72C245.89 12.0599 246.815 12.3999 247.495 13.0799C248.165 13.7699 248.5 14.7099 248.5 15.8999V20.9999H246.28V16.0499C246.28 15.3199 246.15 14.7999 245.89 14.4899C245.58 14.1099 245.115 13.9199 244.495 13.9199H243.07Z" fill="white"/>
<path d="M237.949 21.0001H231.994C230.854 20.9901 229.959 20.6601 229.309 20.0101C228.669 19.3801 228.349 18.4951 228.349 17.3551V15.7351C228.349 14.5851 228.669 13.6951 229.309 13.0651C229.959 12.4151 230.854 12.0801 231.994 12.0601H237.949V13.9201H232.279C231.629 13.9201 231.169 14.0951 230.899 14.4451C230.689 14.7451 230.584 15.2151 230.584 15.8551V17.2351C230.584 17.8651 230.689 18.3301 230.899 18.6301C231.169 18.9701 231.629 19.1401 232.279 19.1401H237.949V21.0001Z" fill="white"/>
<path d="M221.048 16.2001H223.703C224.563 16.2001 224.993 15.8701 224.993 15.2101V14.8951C224.993 14.2251 224.563 13.8901 223.703 13.8901H221.048C220.198 13.8901 219.773 14.2251 219.773 14.8951V15.2101C219.773 15.8701 220.198 16.2001 221.048 16.2001ZM227.213 14.7451V15.3751C227.213 16.1251 226.943 16.7551 226.403 17.2651C225.853 17.7751 225.173 18.0301 224.363 18.0301H219.773V18.0751C219.773 18.7951 220.278 19.1551 221.288 19.1551H226.808V21.0001H221.063C219.943 21.0001 219.073 20.7101 218.453 20.1301C217.853 19.5601 217.553 18.7751 217.553 17.7751V14.7301C217.553 13.9801 217.818 13.3501 218.348 12.8401C218.888 12.3201 219.593 12.0601 220.463 12.0601H224.288C225.158 12.0601 225.863 12.3201 226.403 12.8401C226.943 13.3601 227.213 13.9951 227.213 14.7451Z" fill="white"/>
<path d="M214.18 12.0599H216.82V13.8749H214.18V20.9999H211.945V13.8749H209.305V12.0599H211.945V10.1099H214.18V12.0599Z" fill="white"/>
<path d="M204.555 19.1401C205.165 19.1401 205.6 18.9701 205.86 18.6301C206.09 18.3201 206.205 17.8551 206.205 17.2351V15.8551C206.205 15.2251 206.09 14.7551 205.86 14.4451C205.6 14.0951 205.165 13.9201 204.555 13.9201H202.305C201.705 13.9201 201.275 14.0951 201.015 14.4451C200.795 14.7451 200.685 15.2151 200.685 15.8551V17.2351C200.685 17.8651 200.795 18.3301 201.015 18.6301C201.275 18.9701 201.705 19.1401 202.305 19.1401H204.555ZM204.765 21.0001H202.11C200.97 20.9901 200.075 20.6601 199.425 20.0101C198.785 19.3801 198.465 18.4951 198.465 17.3551V15.7201C198.465 14.5701 198.785 13.6801 199.425 13.0501C200.075 12.4001 200.97 12.0701 202.11 12.0601H204.765C205.915 12.0701 206.815 12.4001 207.465 13.0501C208.105 13.6801 208.425 14.5701 208.425 15.7201V17.3551C208.425 18.4951 208.105 19.3801 207.465 20.0101C206.815 20.6601 205.915 20.9901 204.765 21.0001Z" fill="white"/>
<path d="M197.299 21.0001H191.344C190.204 20.9901 189.309 20.6601 188.659 20.0101C188.019 19.3801 187.699 18.4951 187.699 17.3551V15.7351C187.699 14.5851 188.019 13.6951 188.659 13.0651C189.309 12.4151 190.204 12.0801 191.344 12.0601H197.299V13.9201H191.629C190.979 13.9201 190.519 14.0951 190.249 14.4451C190.039 14.7451 189.934 15.2151 189.934 15.8551V17.2351C189.934 17.8651 190.039 18.3301 190.249 18.6301C190.519 18.9701 190.979 19.1401 191.629 19.1401H197.299V21.0001Z" fill="white"/>
<path d="M175.91 13.02C175.91 11.74 176.22 10.785 176.84 10.155C177.48 9.525 178.415 9.21 179.645 9.21H186.5V11.07H179.975C179.235 11.07 178.73 11.245 178.46 11.595C178.25 11.895 178.145 12.42 178.145 13.17V14.19H185.645V16.035H178.145V17.085C178.145 17.815 178.25 18.33 178.46 18.63C178.73 18.97 179.235 19.14 179.975 19.14H186.5V21H179.645C178.415 21 177.48 20.68 176.84 20.04C176.22 19.43 175.91 18.49 175.91 17.22V13.02Z" fill="white"/>
</svg>
