<svg width="18" height="20" viewBox="0 0 18 20" fill="none" xmlns="http://www.w3.org/2000/svg">
<path d="M9.21957 0H8.78043C8.25103 0 7.74331 0.210714 7.36897 0.585786C6.99463 0.960859 6.78433 1.46957 6.78433 2V2.18C6.78397 2.53073 6.69157 2.87519 6.51639 3.17884C6.34121 3.48248 6.08942 3.73464 5.78628 3.91L5.35712 4.16C5.05367 4.33554 4.70945 4.42795 4.35907 4.42795C4.00868 4.42795 3.66446 4.33554 3.36101 4.16L3.21131 4.08C2.75327 3.81526 2.2091 3.74344 1.69826 3.88031C1.18743 4.01717 0.751663 4.35154 0.486629 4.81L0.267058 5.19C0.0028373 5.64893 -0.0688418 6.19416 0.0677557 6.706C0.204353 7.21783 0.538065 7.65445 0.995635 7.92L1.14534 8.02C1.44703 8.19451 1.69788 8.44509 1.87297 8.74683C2.04806 9.04857 2.14129 9.39097 2.14339 9.74V10.25C2.14479 10.6024 2.05322 10.949 1.87796 11.2545C1.70269 11.5601 1.44996 11.8138 1.14534 11.99L0.995635 12.08C0.538065 12.3456 0.204353 12.7822 0.0677557 13.294C-0.0688418 13.8058 0.0028373 14.3511 0.267058 14.81L0.486629 15.19C0.751663 15.6485 1.18743 15.9828 1.69826 16.1197C2.2091 16.2566 2.75327 16.1847 3.21131 15.92L3.36101 15.84C3.66446 15.6645 4.00868 15.5721 4.35907 15.5721C4.70945 15.5721 5.05367 15.6645 5.35712 15.84L5.78628 16.09C6.08942 16.2654 6.34121 16.5175 6.51639 16.8212C6.69157 17.1248 6.78397 17.4693 6.78433 17.82V18C6.78433 18.5304 6.99463 19.0391 7.36897 19.4142C7.74331 19.7893 8.25103 20 8.78043 20H9.21957C9.74897 20 10.2567 19.7893 10.631 19.4142C11.0054 19.0391 11.2157 18.5304 11.2157 18V17.82C11.216 17.4693 11.3084 17.1248 11.4836 16.8212C11.6588 16.5175 11.9106 16.2654 12.2137 16.09L12.6429 15.84C12.9463 15.6645 13.2905 15.5721 13.6409 15.5721C13.9913 15.5721 14.3355 15.6645 14.639 15.84L14.7887 15.92C15.2467 16.1847 15.7909 16.2566 16.3017 16.1197C16.8126 15.9828 17.2483 15.6485 17.5134 15.19L17.7329 14.8C17.9972 14.3411 18.0688 13.7958 17.9322 13.284C17.7956 12.7722 17.4619 12.3356 17.0044 12.07L16.8547 11.99C16.55 11.8138 16.2973 11.5601 16.122 11.2545C15.9468 10.949 15.8552 10.6024 15.8566 10.25V9.75C15.8552 9.39758 15.9468 9.05105 16.122 8.74549C16.2973 8.43994 16.55 8.18621 16.8547 8.01L17.0044 7.92C17.4619 7.65445 17.7956 7.21783 17.9322 6.706C18.0688 6.19416 17.9972 5.64893 17.7329 5.19L17.5134 4.81C17.2483 4.35154 16.8126 4.01717 16.3017 3.88031C15.7909 3.74344 15.2467 3.81526 14.7887 4.08L14.639 4.16C14.3355 4.33554 13.9913 4.42795 13.6409 4.42795C13.2905 4.42795 12.9463 4.33554 12.6429 4.16L12.2137 3.91C11.9106 3.73464 11.6588 3.48248 11.4836 3.17884C11.3084 2.87519 11.216 2.53073 11.2157 2.18V2C11.2157 1.46957 11.0054 0.960859 10.631 0.585786C10.2567 0.210714 9.74897 0 9.21957 0Z" stroke="white" stroke-width="2" stroke-linecap="round" stroke-linejoin="round"/>
<path d="M9 13C10.6569 13 12 11.6569 12 10C12 8.34315 10.6569 7 9 7C7.34315 7 6 8.34315 6 10C6 11.6569 7.34315 13 9 13Z" stroke="white" stroke-width="2" stroke-linecap="round" stroke-linejoin="round"/>
</svg>
