<svg width="19" height="20" viewBox="0 0 19 20" fill="none" xmlns="http://www.w3.org/2000/svg">
<mask id="path-1-inside-1_343_9355" fill="white">
<path d="M9.47071 0C13.889 0 17.4707 3.58172 17.4707 8V12.446C17.4707 12.8085 17.5692 13.1642 17.7557 13.475L18.6533 14.971C19.4531 16.3041 18.4929 18 16.9383 18H2.00309C0.4485 18 -0.511726 16.3041 0.288103 14.971L1.18569 13.475C1.37219 13.1642 1.47071 12.8085 1.47071 12.446V8C1.47071 3.58173 5.05244 5.92734e-06 9.47071 0Z"/>
</mask>
<path d="M9.47071 0V-2H9.47071L9.47071 0ZM18.6533 14.971L20.3683 13.942L18.6533 14.971ZM17.7557 13.475L19.4707 12.446L17.7557 13.475ZM9.47071 0V2C12.7844 2 15.4707 4.68629 15.4707 8H17.4707H19.4707C19.4707 2.47715 14.9936 -2 9.47071 -2V0ZM17.4707 8H15.4707V12.446H17.4707H19.4707V8H17.4707ZM17.7557 13.475L16.0407 14.504L16.9383 16L18.6533 14.971L20.3683 13.942L19.4707 12.446L17.7557 13.475ZM16.9383 18V16H2.00309V18V20H16.9383V18ZM0.288103 14.971L2.00309 16L2.90068 14.504L1.18569 13.475L-0.529292 12.446L-1.42688 13.942L0.288103 14.971ZM1.47071 12.446H3.47071V8H1.47071H-0.529291V12.446H1.47071ZM1.47071 8H3.47071C3.47071 4.6863 6.157 2 9.47071 2L9.47071 0L9.47071 -2C3.94787 -1.99999 -0.529291 2.47715 -0.529291 8H1.47071ZM1.18569 13.475L2.90068 14.504C3.27368 13.8824 3.47071 13.171 3.47071 12.446H1.47071H-0.529291L-0.529292 12.446L1.18569 13.475ZM2.00309 18V16H2.00309L0.288103 14.971L-1.42688 13.942C-3.02654 16.6081 -1.10609 20 2.00309 20V18ZM18.6533 14.971L16.9383 16V16V18V20C20.0475 20 21.968 16.6081 20.3683 13.942L18.6533 14.971ZM17.4707 12.446H15.4707C15.4707 13.171 15.6677 13.8824 16.0407 14.504L17.7557 13.475L19.4707 12.446V12.446H17.4707Z" fill="white" mask="url(#path-1-inside-1_343_9355)"/>
<path d="M11.4707 18C11.4707 19.1046 10.5753 20 9.4707 20C8.36613 20 7.4707 19.1046 7.4707 18" stroke="white" stroke-width="2" stroke-linecap="round" stroke-linejoin="round"/>
</svg>
