<svg width="50" height="11" viewBox="0 0 50 11" fill="none" xmlns="http://www.w3.org/2000/svg">
<g filter="url(#filter0_f_343_9251)">
<path d="M3.98644 5.02151C3.85417 3.75287 5.18622 2.7432 6.959 2.7664C8.7335 2.7896 10.2794 3.83695 10.4117 5.10387C10.544 6.37423 9.21365 7.38219 7.43915 7.35898C5.66465 7.33578 4.1187 6.29015 3.98644 5.02151ZM10.7411 5.45142C10.5899 3.87817 8.81012 2.58184 6.76791 2.55377C4.72398 2.52569 3.19155 3.77859 3.34451 5.35185C3.49747 6.92511 5.27548 8.22315 7.3177 8.25122C9.35992 8.27757 10.8941 7.0264 10.7411 5.45142Z" fill="white"/>
<path d="M7.64135 8.28126C6.63004 9.33048 5.0146 9.40963 4.03281 8.45818C3.05102 7.50674 3.0768 5.88626 4.08983 4.83876C5.10114 3.79126 6.71828 3.71212 7.69665 4.66183C8.67673 5.61326 8.65266 7.23375 7.63964 8.28125M3.93383 4.80353C2.75857 6.0222 2.72967 7.90588 3.86854 9.01128C5.00741 10.1167 6.88721 10.0252 8.06248 8.8065C9.23946 7.58784 9.26836 5.70415 8.12777 4.59875C6.9889 3.49335 5.11082 3.58486 3.93383 4.80353Z" fill="white"/>
<path d="M4.06143 0.861456C6.15769 0.0863867 8.22322 0.892202 8.67377 2.66145C9.12431 4.43242 7.7901 6.49324 5.69384 7.26831C3.59757 8.0451 1.53204 7.23756 1.0815 5.46832C0.629235 3.69906 1.96517 1.63652 4.06143 0.861456ZM2.11336 1.52549C-0.0651168 3.23774 -0.631022 5.73103 0.849729 7.09458C2.33047 8.45986 5.2994 8.17802 7.4796 6.46578C9.65978 4.75526 10.2257 2.26197 8.74323 0.896689C7.26248 -0.466865 4.29354 -0.185033 2.11336 1.52549Z" fill="white"/>
<path d="M18.5578 1.93834L18.5252 8.05279L17.5706 8.04771L17.5878 4.82289L13.9716 4.80365L13.9544 8.02847L12.9998 8.02339L13.0324 1.90894L13.987 1.91401L13.9761 3.96568L17.5922 3.98492L17.6032 1.93326L18.5578 1.93834Z" fill="white"/>
<path d="M20.8193 8.06475C20.3744 8.06238 20.0218 7.93616 19.7615 7.68338C19.4986 7.43058 19.3655 7.1082 19.3676 6.71624L19.3693 6.38916C19.3714 5.9891 19.5053 5.66543 19.7736 5.41817C20.0338 5.16275 20.3878 5.03758 20.8354 5.03996L23.3271 5.05322L23.3272 5.02889C23.3298 4.53963 23.0642 4.29222 22.5275 4.28937L19.7554 4.27462L19.7597 3.46098L22.5157 3.47564C23.0901 3.4787 23.5261 3.62699 23.8266 3.92054C24.1325 4.2033 24.2841 4.61499 24.2812 5.15291L24.2726 6.77208C24.2704 7.18836 24.1284 7.51469 23.8467 7.75107C23.5893 7.96866 23.2328 8.07489 22.769 8.07242L20.8193 8.06205L20.8193 8.06475ZM22.5758 5.86288L21.063 5.85483C20.5749 5.85224 20.3284 6.05907 20.3262 6.47265L20.3254 6.62402C20.3232 7.0349 20.5648 7.23892 21.0556 7.24154L22.5684 7.24958C23.0673 7.25224 23.3192 7.04814 23.3213 6.63997L23.3222 6.48859C23.3244 6.07231 23.0747 5.86554 22.5758 5.86288Z" fill="white"/>
<path d="M27.0868 3.49986L28.0252 3.50485C28.6185 3.50801 29.0868 3.68351 29.4247 4.03131C29.7627 4.37912 29.93 4.86118 29.9267 5.47749L29.9127 8.11033L28.9581 8.10525L28.9719 5.51837C28.9739 5.13452 28.8999 4.8557 28.7525 4.67921C28.5676 4.44845 28.3013 4.3335 27.9507 4.33164L27.139 4.32732C26.7993 4.32551 26.5344 4.43763 26.3417 4.66638C26.2032 4.84135 26.1316 5.1194 26.1296 5.50324L26.1158 8.09013L25.1612 8.08505L25.1752 5.45221C25.1785 4.8359 25.351 4.35565 25.6926 4.01146C26.0342 3.66727 26.4989 3.49673 27.0895 3.49988L27.0868 3.49986Z" fill="white"/>
<path d="M34.32 7.52291C33.9781 7.93198 33.5563 8.13247 33.0493 8.12978L32.4615 8.12665C31.9302 8.12382 31.5105 7.95399 31.1967 7.61712C30.9018 7.30198 30.7558 6.85518 30.7589 6.28212L30.7736 3.51953L31.7201 3.52457L31.7054 6.29526C31.7036 6.63045 31.7751 6.87682 31.9172 7.03166C32.0807 7.20824 32.296 7.29589 32.5603 7.29729L32.9755 7.2995C33.2452 7.30094 33.4641 7.2156 33.6295 7.04077C33.7787 6.88748 33.8555 6.6419 33.8573 6.30671L33.872 3.53602L34.8104 3.54101L34.7957 6.31171C34.7939 6.64689 34.8654 6.89327 35.0075 7.0481C35.1711 7.22468 35.3863 7.31233 35.6506 7.31374L36.0659 7.31595C36.3355 7.31738 36.5544 7.23204 36.7199 7.05721C36.869 6.90393 36.9458 6.65834 36.9476 6.32316L36.9623 3.55246L37.9089 3.5575L37.8942 6.32008C37.8911 6.89585 37.735 7.33834 37.4259 7.65027C37.1114 7.98379 36.6844 8.14912 36.1478 8.14626L35.5653 8.14316C35.0718 8.14054 34.6549 7.93288 34.3173 7.5229L34.32 7.52291Z" fill="white"/>
<path d="M40.7061 4.40248C40.3663 4.40068 40.1014 4.5128 39.9087 4.74155C39.7703 4.91652 39.6987 5.19457 39.6966 5.57841L39.6829 8.16529L38.7283 8.16021L38.7609 2.02954L39.7155 2.03462L39.7059 3.84571C39.9819 3.66066 40.3006 3.57045 40.6538 3.57232L41.5923 3.57732C42.1855 3.58047 42.6538 3.75597 42.9918 4.10378C43.3297 4.45159 43.497 4.93364 43.4937 5.54996L43.4797 8.18279L42.5251 8.17771L42.5389 5.59083C42.5409 5.20699 42.4669 4.92816 42.3195 4.75167C42.1347 4.52092 41.8683 4.40596 41.5178 4.4041L40.7061 4.39978L40.7061 4.40248Z" fill="white"/>
<path d="M45.7261 8.19708C45.2811 8.19471 44.9285 8.06849 44.6683 7.8157C44.4053 7.56291 44.2722 7.24052 44.2743 6.84857L44.276 6.52149C44.2782 6.12143 44.412 5.79776 44.6803 5.55049C44.9406 5.29507 45.2945 5.1699 45.7421 5.17229L48.2338 5.18554L48.234 5.16122C48.2366 4.67195 47.9709 4.42455 47.4343 4.42169L44.6621 4.40694L44.6665 3.5933L47.4224 3.60797C47.9968 3.61102 48.4329 3.75932 48.7334 4.05286C49.0393 4.33562 49.1908 4.74731 49.1879 5.28523L49.1793 6.9044C49.1771 7.32068 49.0351 7.64701 48.7534 7.88339C48.4961 8.10098 48.1396 8.20721 47.6757 8.20475L45.7261 8.19437L45.7261 8.19708ZM47.4825 5.99521L45.9697 5.98716C45.4816 5.98456 45.2351 6.1914 45.2329 6.60497L45.2321 6.75635C45.2299 7.16722 45.4716 7.37125 45.9624 7.37386L47.4752 7.38191C47.974 7.38456 48.2259 7.18046 48.2281 6.77229L48.2289 6.62091C48.2311 6.20463 47.9814 5.99786 47.4825 5.99521Z" fill="white"/>
</g>
<defs>
<filter id="filter0_f_343_9251" x="-0.475449" y="-0.466797" width="50.1636" height="10.7507" filterUnits="userSpaceOnUse" color-interpolation-filters="sRGB">
<feFlood flood-opacity="0" result="BackgroundImageFix"/>
<feBlend mode="normal" in="SourceGraphic" in2="BackgroundImageFix" result="shape"/>
<feGaussianBlur stdDeviation="0.25" result="effect1_foregroundBlur_343_9251"/>
</filter>
</defs>
</svg>
