<svg width="31" height="22" viewBox="0 0 31 22" fill="none" xmlns="http://www.w3.org/2000/svg">
<path d="M17.79 14.0049L16.8281 13.7318C16.74 14.0421 16.807 14.3759 17.008 14.6281C17.2091 14.8804 17.5195 15.0202 17.8417 15.0035L17.79 14.0049ZM19 21.874L18.7507 20.9056C18.3089 21.0193 18 21.4177 18 21.874H19ZM19 22V23C19.5523 23 20 22.5523 20 22H19ZM7.00195 12.417L6.60118 13.3332C6.90796 13.4674 7.26154 13.4391 7.54312 13.2579C7.82469 13.0767 7.99689 12.7666 8.00184 12.4318L7.00195 12.417ZM12.5 7V8C14.9853 8 17 10.0147 17 12.5H18H19C19 8.91015 16.0899 6 12.5 6V7ZM18 12.5H17C17 12.9267 16.9395 13.3394 16.8281 13.7318L17.79 14.0049L18.752 14.278C18.9123 13.7135 19 13.1171 19 12.5H18ZM17.79 14.0049L17.8417 15.0035C17.8893 15.0011 17.9414 15 18 15V14V13C17.9178 13 17.8298 13.0015 17.7384 13.0062L17.79 14.0049ZM18 14V15C19.6569 15 21 16.3431 21 18H22H23C23 15.2386 20.7614 13 18 13V14ZM22 18H21C21 19.3965 20.0449 20.5725 18.7507 20.9056L19 21.874L19.2493 22.8425C21.4056 22.2875 23 20.3312 23 18H22ZM19 21.874H18V22H19H20V21.874H19ZM19 22V21H5V22V23H19V22ZM5 22V21C2.79086 21 1 19.2091 1 17H0H-1C-1 20.3137 1.68629 23 5 23V22ZM0 17H1C1 14.7909 2.79086 13 5 13V12V11C1.68629 11 -1 13.6863 -1 17H0ZM5 12V13C5.57126 13 6.1121 13.1192 6.60118 13.3332L7.00195 12.417L7.40272 11.5008C6.66583 11.1785 5.85249 11 5 11V12ZM7.00195 12.417L8.00184 12.4318C8.03816 9.97783 10.0378 8 12.5 8V7V6C8.94251 6 6.05452 8.85759 6.00206 12.4022L7.00195 12.417Z" fill="white"/>
<path d="M17.9961 12.6396L16.9964 12.6147L16.9866 13.0061L17.2452 13.3L17.9961 12.6396ZM17.0449 9.40137L16.056 9.25294L15.9977 9.64122L16.2192 9.96542L17.0449 9.40137ZM21 6V7C22.6569 7 24 8.34315 24 10H25H26C26 7.23858 23.7614 5 21 5V6ZM25 10H24C24 11.6569 22.6569 13 21 13V14V15C23.7614 15 26 12.7614 26 10H25ZM21 14V13C20.1029 13 19.2987 12.6066 18.747 11.9793L17.9961 12.6396L17.2452 13.3C18.1596 14.3398 19.5026 15 21 15V14ZM17.9961 12.6396L18.9958 12.6646C18.9962 12.6485 18.9967 12.6373 18.9978 12.6057C18.9988 12.5795 19 12.5417 19 12.5H18H17C17 12.5363 16.9988 12.5166 16.9964 12.6147L17.9961 12.6396ZM18 12.5H19C19 11.1433 18.5834 9.88069 17.8707 8.83731L17.0449 9.40137L16.2192 9.96542C16.712 10.6868 17 11.5582 17 12.5H18ZM17.0449 9.40137L18.0338 9.54979C18.2504 8.10667 19.4968 7 21 7V6V5C18.4919 5 16.4173 6.84577 16.056 9.25294L17.0449 9.40137Z" fill="white"/>
<path d="M21 0L21 3" stroke="white" stroke-width="2" stroke-linecap="round"/>
<path d="M21 0L21 3" stroke="white" stroke-width="2" stroke-linecap="round"/>
<path d="M31.0049 9.99512L28.0049 9.99512" stroke="white" stroke-width="2" stroke-linecap="round"/>
<path d="M28.0796 17.0679L25.9583 14.9466" stroke="white" stroke-width="2" stroke-linecap="round"/>
<path d="M16.0586 5.04688L13.9373 2.92555" stroke="white" stroke-width="2" stroke-linecap="round"/>
<path d="M28.0796 2.92578L25.9583 5.0471" stroke="white" stroke-width="2" stroke-linecap="round"/>
</svg>
