<svg width="272" height="141" viewBox="0 0 272 141" fill="none" xmlns="http://www.w3.org/2000/svg">
<path d="M177.16 0.539062C177.384 0.515291 177.61 0.516405 177.833 0.542969L196.894 2.8125C197.738 2.91299 198.5 3.36701 198.99 4.06152L203.288 10.1504C203.877 10.9853 204.765 11.5638 205.767 11.7656L268.593 24.4238C269.993 24.706 271 25.9369 271 27.3652V69.7314C271 70.4338 270.754 71.114 270.304 71.6533L214.214 138.864C213.62 139.575 212.731 139.973 211.806 139.94L3.39453 132.619C1.77983 132.562 0.500159 131.237 0.5 129.621V82.1787C0.500039 81.269 0.912617 80.4082 1.62207 79.8389L78 18.542C78.4546 18.1772 79.0058 17.9532 79.5859 17.8965L143.856 11.6143C144.739 11.5279 145.569 11.1502 146.214 10.541L153.484 3.6748C153.962 3.22393 154.575 2.94154 155.228 2.87207L177.16 0.539062Z" fill="#EF4444" fill-opacity="0.7" stroke="#EF4444"/>
</svg>
