<svg xmlns="http://www.w3.org/2000/svg" width="64" height="64" viewBox="0 0 64 64" fill="none">
  <title>Hanwha Ecotech Digital Twin</title>
  <rect width="64" height="64" rx="14" fill="#111111"/>
  <path d="M9.8 19.8C20.7 9.1 39.4 5.6 50.9 12.2C59.4 17 57.9 27.3 47.5 35.4C36.4 44.2 18.8 46.4 10.7 39.7C4.3 34.4 4.1 25.3 9.8 19.8Z" stroke="#F16C25" stroke-width="4.6" stroke-linecap="round"/>
  <path d="M22.9 48.2C17.5 42.4 18.6 32.3 25.4 25.6C32.4 18.6 42.6 17.7 48 23.5C53.5 29.4 52.4 39.5 45.5 46.2C38.6 53.1 28.3 54 22.9 48.2Z" stroke="#F89B6C" stroke-width="3.8" stroke-linecap="round"/>
  <path d="M20.2 27.6L32 20.8L43.8 27.6V41.2L32 48L20.2 41.2V27.6Z" fill="#18262D" stroke="#FFFFFF" stroke-width="2.4" stroke-linejoin="round"/>
  <path d="M20.2 27.6L32 34.4L43.8 27.6" stroke="#8DEBFF" stroke-width="2.4" stroke-linecap="round" stroke-linejoin="round"/>
  <path d="M32 34.4V48" stroke="#8DEBFF" stroke-width="2.4" stroke-linecap="round"/>
  <circle cx="32" cy="34.4" r="3.1" fill="#F16C25"/>
</svg>
